HIERARCHY
ROOT Hips
{
    OFFSET 0.000000 0.000000 0.000000
    CHANNELS 6 Xposition Yposition Zposition Zrotation Xrotation Yrotation
    JOINT Spine
    {
        OFFSET -0.000000 8.359812 0.000000
        CHANNELS 3 Zrotation Xrotation Yrotation
        JOINT Spine1
        {
            OFFSET -0.000000 28.141317 0.000000
            CHANNELS 3 Zrotation Xrotation Yrotation
            JOINT Neck
            {
                OFFSET -0.000000 28.025745 2.547795
                CHANNELS 3 Zrotation Xrotation Yrotation
                JOINT Head
                {
                    OFFSET -0.000000 14.272848 -2.038978
                    CHANNELS 3 Zrotation Xrotation Yrotation
                    End Site
                    {
                        OFFSET -0.000000 25.487228 0.000000
                    }
                }
            }
            JOINT LeftShoulder
            {
                OFFSET 4.059574 26.120710 -0.180480
                CHANNELS 3 Zrotation Xrotation Yrotation
                JOINT LeftArm
                {
                    OFFSET 11.584161 0.000000 0.000000
                    CHANNELS 3 Zrotation Xrotation Yrotation
                    JOINT LeftForeArm
                    {
                        OFFSET 30.766815 0.000000 0.000000
                        CHANNELS 3 Zrotation Xrotation Yrotation
                        JOINT LeftHand
                        {
                            OFFSET 29.436810 0.000000 0.000000
                            CHANNELS 3 Zrotation Xrotation Yrotation
                            End Site
                            {
                                OFFSET 15.292337 0.000000 0.000000
                            }
                        }
                    }
                }
            }
            JOINT RightShoulder
            {
                OFFSET -4.095355 26.120710 -0.180480
                CHANNELS 3 Zrotation Xrotation Yrotation
                JOINT RightArm
                {
                    OFFSET -11.584161 0.000000 0.000000
                    CHANNELS 3 Zrotation Xrotation Yrotation
                    JOINT RightForeArm
                    {
                        OFFSET -30.766815 0.000000 0.000000
                        CHANNELS 3 Zrotation Xrotation Yrotation
                        JOINT RightHand
                        {
                            OFFSET -29.436810 0.000000 0.000000
                            CHANNELS 3 Zrotation Xrotation Yrotation
                            End Site
                            {
                                OFFSET -15.292337 0.000000 0.000000
                            }
                        }
                    }
                }
            }
        }
    }
    JOINT LeftUpLeg
    {
        OFFSET 10.194892 0.000000 0.000000
        CHANNELS 3 Zrotation Xrotation Yrotation
        JOINT LeftLeg
        {
            OFFSET -0.000000 -32.520012 0.000000
            CHANNELS 3 Zrotation Xrotation Yrotation
            JOINT LeftFoot
            {
                OFFSET -0.000000 -49.106510 0.000000
                CHANNELS 3 Zrotation Xrotation Yrotation
                JOINT LeftToeBase
                {
                    OFFSET -0.000000 -6.626679 15.292337
                    CHANNELS 3 Zrotation Xrotation Yrotation
                    End Site
                    {
                        OFFSET -0.000000 0.000000 4.077957
                    }
                }
            }
        }
    }
    JOINT RightUpLeg
    {
        OFFSET -10.194892 0.000000 0.000000
        CHANNELS 3 Zrotation Xrotation Yrotation
        JOINT RightLeg
        {
            OFFSET -0.000000 -32.520012 0.000000
            CHANNELS 3 Zrotation Xrotation Yrotation
            JOINT RightFoot
            {
                OFFSET -0.000000 -49.106510 0.000000
                CHANNELS 3 Zrotation Xrotation Yrotation
                JOINT RightToeBase
                {
                    OFFSET -0.000000 -6.626679 15.292337
                    CHANNELS 3 Zrotation Xrotation Yrotation
                    End Site
                    {
                        OFFSET -0.000000 0.000000 4.077957
                    }
                }
            }
        }
    }
}
MOTION
Frames:    13
Frame Time:    0.008333
-91.059341    88.593170    51.058887    -0.960696    -2.292911    83.886604    4.233406    -8.673922    -0.184419    0.287016    -1.312341    -0.502331    6.212443    24.924063    10.892279    -13.817613    -9.781447    8.757135    14.006604    -1.693998    -0.100396    -13.896726    -0.098715    0.656282    1.421572    -0.286973    1.928786    5.143521    -0.116770    4.323386    -13.920873    -0.415156    1.669435    15.784804    -0.931609    18.324223    -1.867545    0.820066    -0.727931    -17.476414    1.796261    -6.422868    5.004463    3.178900    -4.231735    -3.939843    3.060683    -12.124856    2.132534    -4.688685    34.759243    0.000000    0.000000    0.000000    0.273857    4.656395    1.443931    3.498992    2.650144    1.830935    -1.202293    -4.110598    -8.357988    0.000000    0.000000    0.000000    
-91.157921    88.502151    51.070396    -1.041298    -2.262991    83.768356    4.204292    -8.631350    -0.147686    0.264277    -1.244486    -0.462369    6.111541    24.889341    10.913107    -13.754412    -10.067975    8.749083    13.948705    -1.700983    -0.108396    -13.732949    0.027790    0.724216    1.457095    -0.532645    1.894063    5.159612    -0.364187    4.270196    -13.964495    -0.486973    1.719050    15.846784    -1.025501    18.278070    -1.912514    0.626004    -0.763501    -17.236917    1.592988    -6.458146    5.004409    3.033531    -4.113961    -3.986218    3.117163    -12.173222    2.443266    -4.943117    34.871220    0.000000    0.000000    0.000000    0.274546    4.518356    1.430854    3.515696    2.629809    1.948483    -1.630391    -4.337298    -8.444313    0.000000    0.000000    0.000000    
-91.241821    88.385101    51.092674    -1.066682    -2.277225    83.673004    4.198987    -8.545204    -0.131818    0.259404    -1.174698    -0.443169    5.975993    24.814894    10.958607    -13.689648    -10.166057    8.784188    13.887821    -1.649843    -0.122756    -13.594928    0.067578    0.773870    1.558239    -0.680541    1.915806    5.099668    -0.522403    4.135785    -13.965161    -0.486808    1.812956    15.856365    -1.239669    18.235044    -1.966685    0.356282    -0.794910    -16.994392    1.308217    -6.455245    5.039989    2.943488    -3.986871    -4.023040    3.208845    -12.398992    2.927065    -5.287310    35.122990    0.000000    0.000000    0.000000    0.331751    4.502856    1.442587    3.525861    2.540484    2.015776    -1.976171    -4.601151    -8.556486    0.000000    0.000000    0.000000    
-91.322525    88.264214    51.106392    -1.093172    -2.275058    83.544456    4.185759    -8.516683    -0.079497    0.244258    -0.998062    -0.389354    6.003649    24.729624    10.954516    -13.805470    -10.287622    8.736309    13.963134    -1.680895    -0.143522    -13.616302    0.039480    0.770079    1.628744    -0.779536    1.974025    5.434921    -0.611202    4.136044    -14.029834    -0.510343    1.827821    15.919733    -1.430139    18.225256    -1.953190    0.146299    -0.819363    -16.768494    1.089274    -6.484818    5.018851    2.873729    -3.906789    -4.009369    3.237907    -12.136323    3.386129    -5.620817    34.964645    0.000000    0.000000    0.000000    0.370611    4.500324    1.515712    3.508683    2.437541    2.186726    -2.295723    -4.915080    -8.749051    0.000000    0.000000    0.000000    
-91.378510    88.144005    51.115490    -1.070449    -2.252769    83.416901    4.077798    -8.463088    0.014819    0.341510    -0.837301    -0.284565    6.191595    24.801407    10.850226    -14.195045    -10.482780    8.533914    13.949428    -1.737240    -0.264491    -13.600468    -0.104901    0.716201    1.680050    -0.822525    2.092003    6.055759    -0.634677    4.130151    -14.117119    -0.503707    1.748044    15.964320    -1.532756    18.186506    -1.977288    -0.148110    -0.800786    -16.299250    0.781800    -6.583643    4.962996    2.925937    -3.839812    -3.983305    3.225956    -12.606485    3.932175    -5.909065    35.540756    0.000000    0.000000    0.000000    0.363587    4.635708    1.618975    3.539314    2.216765    2.382910    -2.679605    -5.203732    -9.075349    0.000000    0.000000    0.000000    
-91.454376    88.031319    51.117313    -1.099088    -2.204021    83.267883    4.125748    -8.580235    0.039650    0.164812    -0.414431    -0.269311    6.220841    24.778730    10.908476    -14.369500    -10.769840    8.520376    14.094172    -1.753337    -0.202814    -13.647287    -0.291209    0.746109    1.765410    -0.946135    2.105415    6.458568    -0.742123    4.189207    -14.248119    -0.738066    1.808204    16.217236    -1.560172    18.218113    -2.020377    -0.542350    -0.835840    -16.474697    0.379214    -6.460560    4.883335    2.925605    -3.826050    -3.959360    3.171976    -12.852251    4.462909    -6.140718    35.959675    0.000000    0.000000    0.000000    0.343031    4.701191    1.713230    3.535811    1.985733    2.398649    -2.970973    -5.477306    -9.146605    0.000000    0.000000    0.000000    
-91.508812    87.940727    51.122063    -1.091357    -2.130478    83.186676    4.135105    -8.728719    0.039830    -0.055432    0.080694    -0.276066    6.325042    24.598988    10.993952    -14.484177    -10.754857    8.582086    14.418215    -1.805013    -0.124405    -13.859013    -0.546292    0.697011    1.814656    -1.074732    2.179597    6.833212    -0.856595    4.231866    -14.305500    -0.935750    1.864719    16.443289    -1.601510    18.215912    -2.064783    -0.931720    -0.806030    -16.617302    0.013625    -6.565634    4.779620    3.008318    -3.941504    -3.921630    3.016137    -12.852281    4.834971    -6.261359    36.175247    0.000000    0.000000    0.000000    0.300810    4.898157    1.779499    3.519008    1.617599    2.371202    -3.258237    -5.648436    -9.185297    0.000000    0.000000    0.000000    
-91.569778    87.878563    51.121521    -1.131153    -2.048372    83.071228    3.986542    -8.835598    0.047913    0.118963    0.348076    -0.260725    6.103524    24.712683    11.023714    -14.544395    -10.870038    8.573792    14.225941    -1.775826    -0.142090    -13.901837    -0.644966    0.769247    2.000710    -1.289236    2.117210    7.382051    -1.056745    4.176457    -14.488817    -0.850760    1.899478    16.587399    -1.781182    18.337812    -2.100615    -1.367841    -0.789961    -16.919489    -0.392422    -6.648958    4.674383    3.055049    -3.958484    -3.882030    2.819453    -12.639856    4.995977    -6.338520    36.113647    0.000000    0.000000    0.000000    0.206205    5.052080    1.994488    3.561730    1.221403    2.395788    -3.484514    -5.723634    -9.372412    0.000000    0.000000    0.000000    
-91.639854    87.839218    51.125019    -1.160563    -1.950045    82.963821    3.945283    -8.836623    0.105900    -0.028919    0.405640    -0.199145    6.263775    24.878429    11.056626    -14.730966    -10.724115    8.606158    14.185128    -1.711966    -0.200258    -13.878730    -0.856111    0.680640    2.005528    -1.409999    2.170959    8.350168    -1.138224    4.243179    -14.335778    -0.867265    1.871675    16.685007    -1.764240    18.392115    -2.167893    -1.541104    -0.747840    -17.087967    -0.530391    -6.814702    4.585425    3.081947    -3.981056    -3.878670    2.660615    -12.544026    5.109855    -6.340719    36.123699    0.000000    0.000000    0.000000    0.096209    5.255379    2.281297    3.593798    0.731786    2.259731    -3.610896    -5.713420    -9.442014    0.000000    0.000000    0.000000    
-91.712067    87.827332    51.133324    -1.211591    -1.855476    82.867424    3.873758    -8.923510    0.112895    -0.050713    0.549236    -0.189177    6.116105    24.928429    11.124248    -14.678016    -10.373645    8.723652    14.011364    -1.680784    -0.242325    -13.824656    -0.975296    0.717969    2.007906    -1.638079    2.123023    9.112839    -1.328549    4.350232    -14.296511    -0.901471    1.918236    16.839256    -1.716430    18.484146    -2.285603    -1.858858    -0.694055    -17.308928    -0.799654    -7.042898    4.517762    3.062570    -4.029383    -3.889409    2.524231    -12.252581    5.033185    -6.304628    35.938335    0.000000    0.000000    0.000000    -0.014853    5.392076    2.544276    3.632975    0.320097    2.219849    -3.691726    -5.632294    -9.581995    0.000000    0.000000    0.000000    
-91.794708    87.840973    51.147293    -1.269514    -1.781258    82.799934    3.832155    -8.986278    0.114355    -0.111745    0.640357    -0.186255    5.993768    25.282701    11.123425    -14.671152    -10.477550    8.722377    13.987663    -1.437657    -0.148993    -13.941733    -1.222880    0.509299    1.972831    -1.916048    2.128300    9.993834    -1.575635    4.312829    -14.276221    -0.924314    1.947015    17.037951    -1.823567    18.558105    -2.226002    -2.021819    -0.593750    -17.727436    -0.921305    -7.124099    4.500597    3.011978    -4.095918    -3.928191    2.434786    -12.289419    4.925694    -6.213284    36.032768    0.000000    0.000000    0.000000    -0.087681    5.506680    2.655816    3.647317    -0.074763    2.185483    -3.677224    -5.465252    -9.621998    0.000000    0.000000    0.000000    
-91.892586    87.873779    51.167255    -1.381116    -1.739549    82.731056    3.832011    -9.081525    0.135127    -0.188577    0.711430    -0.168401    6.047414    25.289518    11.165118    -14.814439    -9.881209    8.812908    13.990151    -1.439654    -0.168836    -14.085110    -1.213247    0.497965    1.979097    -2.306768    2.091021    10.416738    -1.973635    4.051868    -14.256648    -0.980544    1.923364    17.250330    -1.737676    18.622774    -2.123893    -2.162210    -0.491381    -18.530481    -1.012667    -7.096068    4.533853    2.877557    -4.113444    -3.981934    2.382245    -12.366508    4.748057    -6.112646    36.156254    0.000000    0.000000    0.000000    -0.145437    5.509456    2.770655    3.695067    -0.374555    2.230751    -3.620889    -5.260201    -9.690439    0.000000    0.000000    0.000000    
-92.007889    87.914467    51.190586    -1.518846    -1.730260    82.655586    3.877894    -9.155069    0.138983    -0.261292    0.720028    -0.169966    6.049028    25.459860    11.212339    -14.919923    -9.539291    8.892236    13.984436    -1.441051    -0.137803    -14.228513    -1.159734    0.519921    1.908527    -2.584192    1.926067    11.174844    -2.215445    4.099040    -14.292572    -1.070435    1.932248    17.527256    -1.574571    18.701887    -2.205903    -2.406933    -0.320930    -18.677635    -1.193651    -7.408520    4.608413    2.657205    -3.999958    -4.037148    2.434066    -12.608658    4.589184    -6.026554    36.312229    0.000000    0.000000    0.000000    -0.192171    5.405955    2.897789    3.789974    -0.572199    2.144877    -3.526483    -5.042212    -9.634957    0.000000    0.000000    0.000000    
